<svg width="64" height="64" viewBox="0 0 64 64" fill="none" xmlns="http://www.w3.org/2000/svg">
<rect x="5" y="9" width="54" height="50" rx="8" fill="url(#paint0_linear_2689_60591)"/>
<rect x="5" y="5" width="54" height="50" rx="8" fill="url(#paint1_linear_2689_60591)"/>
<g filter="url(#filter0_d_2689_60591)">
<mask id="mask0_2689_60591" style="mask-type:alpha" maskUnits="userSpaceOnUse" x="11" y="8" width="42" height="42">
<path d="M11.0001 16.9825C18.1955 15.4592 25.3661 13.216 31.7501 8.77997C38.1339 13.216 45.3045 15.4592 52.5001 16.9825C49.0906 36.3253 41.7487 44.599 31.7501 49.78C21.7517 44.599 14.4097 36.3251 11.0001 16.9825Z" fill="#E1B37B"/>
</mask>
<g mask="url(#mask0_2689_60591)">
<path d="M13.4318 18.4547C19.194 17.0123 24.8838 14.9684 30.1088 11.5252C31.0901 10.8786 32.3695 10.8786 33.3508 11.5252C38.5757 14.9685 44.2654 17.0124 50.0278 18.4547C51.4204 18.8033 52.3369 20.16 52.0648 21.5695C48.6375 39.3191 41.9602 47.6114 33.0105 52.8751C32.2199 53.3401 31.2397 53.3401 30.4491 52.8751C21.4996 47.6114 14.8221 39.3189 11.3949 21.5695C11.1227 20.1599 12.0392 18.8033 13.4318 18.4547Z" fill="#FFECDA"/>
<g filter="url(#filter1_d_2689_60591)">
<path d="M42.7999 29.84C42.7999 35.8047 37.9646 40.64 31.9999 40.64C26.0352 40.64 21.1999 35.8047 21.1999 29.84C21.1999 23.8753 26.0352 19.04 31.9999 19.04C37.9646 19.04 42.7999 23.8753 42.7999 29.84Z" fill="white"/>
<path d="M31.9103 18.5903C30.1756 18.5903 28.5314 18.9815 27.0623 19.6807L26.8438 18.6118L25.641 18.9679L26.1273 20.181C26.1201 20.1853 26.1121 20.1889 26.1049 20.1939L24.7379 17.96L23.4598 18.9241L25.2235 20.7811C22.4568 22.8169 20.6599 26.0795 20.6599 29.7498C20.6599 35.9038 25.7069 40.91 31.9103 40.91C38.113 40.91 43.1599 35.9038 43.1599 29.7498C43.1606 23.5965 38.1144 18.5903 31.9103 18.5903ZM31.9103 38.1916C27.2179 38.1916 23.4012 34.4071 23.4012 29.7498C23.4012 29.1325 23.4685 28.5295 23.5966 27.9487H29.0293L29.0083 25.6768L31.3494 27.9487H40.2232C40.3513 28.5295 40.4193 29.1325 40.4193 29.7498C40.4193 34.4043 36.6019 38.1916 31.9103 38.1916Z" fill="#355F92"/>
<path d="M28.7599 31.91C29.5055 31.91 30.1099 31.3056 30.1099 30.56C30.1099 29.8144 29.5055 29.21 28.7599 29.21C28.0143 29.21 27.4099 29.8144 27.4099 30.56C27.4099 31.3056 28.0143 31.91 28.7599 31.91Z" fill="#355F92"/>
<path d="M35.5099 31.91C36.2555 31.91 36.8599 31.3056 36.8599 30.56C36.8599 29.8144 36.2555 29.21 35.5099 29.21C34.7643 29.21 34.1599 29.8144 34.1599 30.56C34.1599 31.3056 34.7643 31.91 35.5099 31.91Z" fill="#355F92"/>
<path d="M32.1354 35.5103C33.5296 35.5103 34.6925 34.5452 35.0597 33.2603H29.2097C29.5783 34.5452 30.7412 35.5103 32.1354 35.5103Z" fill="#355F92"/>
</g>
</g>
</g>
<rect x="5.7" y="5.7" width="52.6" height="48.6" rx="7.3" stroke="url(#paint2_linear_2689_60591)" stroke-width="1.4" style="mix-blend-mode:soft-light"/>
<defs>
<filter id="filter0_d_2689_60591" x="8.64705" y="11.0402" width="46.1656" height="44.6797" filterUnits="userSpaceOnUse" color-interpolation-filters="sRGB">
<feFlood flood-opacity="0" result="BackgroundImageFix"/>
<feColorMatrix in="SourceAlpha" type="matrix" values="0 0 0 0 0 0 0 0 0 0 0 0 0 0 0 0 0 0 127 0" result="hardAlpha"/>
<feOffset dy="3.24"/>
<feGaussianBlur stdDeviation="1.35"/>
<feComposite in2="hardAlpha" operator="out"/>
<feColorMatrix type="matrix" values="0 0 0 0 0 0 0 0 0 0 0 0 0 0 0 0 0 0 0.28 0"/>
<feBlend mode="normal" in2="BackgroundImageFix" result="effect1_dropShadow_2689_60591"/>
<feBlend mode="normal" in="SourceGraphic" in2="effect1_dropShadow_2689_60591" result="shape"/>
</filter>
<filter id="filter1_d_2689_60591" x="17.9599" y="17.96" width="27.9" height="28.89" filterUnits="userSpaceOnUse" color-interpolation-filters="sRGB">
<feFlood flood-opacity="0" result="BackgroundImageFix"/>
<feColorMatrix in="SourceAlpha" type="matrix" values="0 0 0 0 0 0 0 0 0 0 0 0 0 0 0 0 0 0 127 0" result="hardAlpha"/>
<feOffset dy="3.24"/>
<feGaussianBlur stdDeviation="1.35"/>
<feComposite in2="hardAlpha" operator="out"/>
<feColorMatrix type="matrix" values="0 0 0 0 0 0 0 0 0 0 0 0 0 0 0 0 0 0 0.28 0"/>
<feBlend mode="normal" in2="BackgroundImageFix" result="effect1_dropShadow_2689_60591"/>
<feBlend mode="normal" in="SourceGraphic" in2="effect1_dropShadow_2689_60591" result="shape"/>
</filter>
<linearGradient id="paint0_linear_2689_60591" x1="5.13334" y1="58.1673" x2="58.6414" y2="58.1673" gradientUnits="userSpaceOnUse">
<stop stop-color="#EAA662"/>
<stop offset="0.0414257" stop-color="#C47E38"/>
<stop offset="0.0815191" stop-color="#EAA662"/>
<stop offset="0.899024" stop-color="#EAA662"/>
<stop offset="0.952865" stop-color="#B6712D"/>
<stop offset="1" stop-color="#EAA662"/>
</linearGradient>
<linearGradient id="paint1_linear_2689_60591" x1="32" y1="5" x2="32" y2="55" gradientUnits="userSpaceOnUse">
<stop stop-color="#EAA662"/>
<stop offset="1" stop-color="#F3BA80"/>
</linearGradient>
<linearGradient id="paint2_linear_2689_60591" x1="32" y1="1" x2="32" y2="61" gradientUnits="userSpaceOnUse">
<stop stop-color="white" stop-opacity="0.9"/>
<stop offset="1" stop-color="white" stop-opacity="0.1"/>
</linearGradient>
</defs>
</svg>
