<?xml version="1.0" encoding="UTF-8" standalone="no"?>
<!-- Created with Inkscape (http://www.inkscape.org/) -->

<svg
   width="64"
   height="64"
   viewBox="0 0 16.933333 16.933333"
   version="1.1"
   id="svg1"
   inkscape:version="1.2.2 (b0a8486541, 2022-12-01)"
   sodipodi:docname="2.svg"
   xmlns:inkscape="http://www.inkscape.org/namespaces/inkscape"
   xmlns:sodipodi="http://sodipodi.sourceforge.net/DTD/sodipodi-0.dtd"
   xmlns="http://www.w3.org/2000/svg"
   xmlns:svg="http://www.w3.org/2000/svg">
  <sodipodi:namedview
     id="namedview1"
     pagecolor="#ffffff"
     bordercolor="#000000"
     borderopacity="0.25"
     inkscape:showpageshadow="2"
     inkscape:pageopacity="0.0"
     inkscape:pagecheckerboard="0"
     inkscape:deskcolor="#d1d1d1"
     inkscape:document-units="px"
     inkscape:zoom="1.6480781"
     inkscape:cx="-135.30913"
     inkscape:cy="-5.4609064"
     inkscape:window-width="1920"
     inkscape:window-height="1005"
     inkscape:window-x="0"
     inkscape:window-y="0"
     inkscape:window-maximized="1"
     inkscape:current-layer="g1"
     showgrid="false" />
  <defs
     id="defs1">
    <linearGradient
       id="SVGID_00000129901450951144020920000007753056098303935627_"
       gradientUnits="userSpaceOnUse"
       x1="-434.02811"
       y1="-74.135002"
       x2="-434.02811"
       y2="-49.8008"
       gradientTransform="matrix(1,0,0,-1,0,-121.5918)">
      <stop
         offset="0"
         style="stop-color:#27AFD9"
         id="stop80" />
      <stop
         offset="1"
         style="stop-color:#42BDD9"
         id="stop81" />
    </linearGradient>
  </defs>
  <g
     inkscape:label="Layer 1"
     inkscape:groupmode="layer"
     id="layer1">
    <g
       id="g2"
       transform="matrix(1.3559798,0,0,1.3559798,-3.0139622,-3.0139622)">
      <g
         id="g1">
        <g
           id="g321"
           transform="matrix(0.12021193,0,0,0.12021193,134.47694,-3.5844698)">
          <path
             style="fill:#2f3536;fill-opacity:1;stroke:#dddddd;stroke-width:3.33387;stroke-dasharray:none;stroke-opacity:1"
             d="m -1052.5216,147.66366 c -21.587,-10.82281 -36.8986,-32.07617 -42.4577,-58.933269 -0.9429,-4.55549 -1.41,-9.260134 -1.0584,-10.661121 0.3872,-1.542494 2.253,-3.277959 5.1376,-4.778688 1.8459,-0.960396 3.5374,-2.205718 5.0585,-3.724285 3.6523,-3.646063 5.3906,-7.120251 6.3541,-12.699422 0.5826,-3.371968 1.2207,-4.448104 3.1296,-5.27577 1.3389,-0.580471 3.3241,-0.632147 28.449,-0.745055 26.8348,-0.120342 27.016,-0.116802 27.9645,0.591089 1.6469,1.228898 2.1842,2.303689 2.731,5.462865 1.2574,7.265439 5.4329,12.849566 12.1259,16.216649 4.249,2.137547 5.26488,4.105555 4.6306,8.970394 -3.0778,23.606743 -14.2523,44.666003 -30.5828,57.635273 -5.2972,4.207 -14.9818,9.98934 -16.7307,9.98934 -0.366,0 -2.5043,-0.92175 -4.7512,-2.04821 z"
             id="path287" />
          <path
             style="fill:#2f3536;fill-opacity:1;stroke-width:7.07891"
             d="m -1052.5216,147.66366 c -21.587,-10.82281 -36.8986,-32.07617 -42.4577,-58.933269 -0.9429,-4.55549 -1.41,-9.260134 -1.0584,-10.661121 0.3872,-1.542494 2.253,-3.277959 5.1376,-4.778688 1.8459,-0.960396 3.5374,-2.205718 5.0585,-3.724285 3.6523,-3.646063 5.3906,-7.120251 6.3541,-12.699422 0.5826,-3.371968 1.2207,-4.448104 3.1296,-5.27577 1.3389,-0.580471 3.3241,-0.632147 28.449,-0.745055 26.8348,-0.120342 27.016,-0.116802 27.9645,0.591089 1.6469,1.228898 2.1842,2.303689 2.731,5.462865 1.2574,7.265439 5.4329,12.849566 12.1259,16.216649 4.249,2.137547 5.26488,4.105555 4.6306,8.970394 -3.0778,23.606743 -14.2523,44.666003 -30.5828,57.635273 -5.2972,4.207 -14.9818,9.98934 -16.7307,9.98934 -0.366,0 -2.5043,-0.92175 -4.7512,-2.04821 z"
             id="path290" />
          <path
             style="fill:#ebf3f8;fill-opacity:1;stroke-width:7.07891"
             d="m -1043.6272,141.72105 c 9.5977,-5.447 17.8781,-13.22425 24.2315,-22.75904 6.4274,-9.64601 11.4661,-23.248487 13.2463,-35.759681 0.2704,-1.900262 0.4948,-3.628012 0.4977,-3.839459 0,-0.211659 -0.9748,-0.867449 -2.1739,-1.457759 -7.4826,-3.683653 -12.8756,-10.705011 -14.5872,-18.991653 -0.3001,-1.452238 -0.6017,-2.696923 -0.671,-2.766084 -0.071,-0.07079 -11.566,-0.01416 -25.5485,0.127421 l -25.4228,0.253425 v 0.876793 c 0,1.553609 -1.0863,5.343586 -2.2784,7.948483 -2.4473,5.348187 -6.4906,9.724227 -11.6716,12.632031 l -2.9274,1.643015 0.1784,1.26854 c 1.5446,10.978964 4.2308,19.971308 8.6762,29.044478 5.7339,11.70321 14.3224,21.65743 24.7669,28.70534 2.9116,1.96475 8.7842,5.17942 9.4744,5.18636 0.2633,0.003 2.1573,-0.94794 4.2091,-2.11242 z"
             id="path291" />
        </g>
        <path
           style="fill:#33b5d9;fill-opacity:1;stroke-width:0.189703"
           d="m 7.3329391,4.2715143 c -0.52272,0 -0.9464767,0.4246698 -0.9464767,0.9485163 0,0.5238468 0.4237567,0.9485167 0.9464767,0.9485167 0.5227205,0 0.9464772,-0.4246699 0.9464772,-0.9485167 0,-0.5238465 -0.4237567,-0.9485163 -0.9464772,-0.9485163 z M 6.5757576,6.5479537 C 6.4228334,6.5478397 6.2848522,6.6399257 6.2260039,6.781376 L 5.279527,8.6784092 C 5.0702534,9.1513777 5.7903218,9.4522466 5.9782923,8.9703784 L 6.3983007,7.9610797 6.3849747,8.0655639 V 10.72141 c 0,0.210191 0.1688515,0.379406 0.3785907,0.379406 h 0.00152 c 0.2097393,0 0.3785907,-0.169215 0.3785907,-0.379406 L 7.1421561,9.2037849 H 7.520747 l 0.00152,1.5176251 c 2.088e-4,0.210191 0.1688515,0.379406 0.3785908,0.379406 0.2097394,0 0.3785908,-0.169215 0.3785908,-0.379406 L 8.2779286,8.0655642 8.2638826,7.9521861 8.6868441,8.9703627 c 0.084446,0.2158927 0.3406785,0.3060439 0.5412712,0.1904422 l 0.5789803,-0.03111 c -0.00508,0.024736 -0.014795,0.047828 -0.014795,0.074103 v 1.7073291 c 0,0.105096 0.084428,0.189704 0.1892939,0.189704 0.1048705,0 0.1892945,-0.0846 0.1892945,-0.189704 l -0.0016,-0.9485157 h 0.380069 l 0.0015,0.9485157 c 1.62e-4,0.105096 0.08443,0.189704 0.189296,0.189704 0.104873,0 0.189295,-0.0846 0.189295,-0.189704 V 9.4727966 l 0.43258,0.4342307 c 0.178412,0.1862037 0.453474,-0.08945 0.267676,-0.268256 L 10.874094,8.8799578 c -0.03552,-0.035587 -0.08364,-0.055561 -0.133838,-0.055577 H 10.03411 l -0.6159678,0.00816 c 3.41e-5,-0.053095 -0.011053,-0.105604 -0.032514,-0.1541374 L 8.4391431,6.7813722 C 8.3803968,6.6401725 8.2427869,6.5481357 8.0901313,6.5479499 Z M 10.36019,7.2119149 c -0.3647876,0 -0.6625349,0.2983888 -0.6625349,0.6639615 0,0.3655734 0.2977473,0.6639619 0.6625349,0.6639619 0.364786,0 0.662534,-0.2983885 0.662534,-0.6639619 0,-0.3655727 -0.297748,-0.6639615 -0.662534,-0.6639615 z"
           id="path300" />
      </g>
    </g>
  </g>
</svg>
